<?xml version="1.0" encoding="UTF-8" standalone="no"?>
<!-- Created with Inkscape (http://www.inkscape.org/) by Marsupilami -->
<svg
   xmlns:svg="http://www.w3.org/2000/svg"
   xmlns="http://www.w3.org/2000/svg"
   version="1.0"
   width="1024"
   height="359"
   viewBox="0 0 127.55937 44.780499"
   id="svg2624">
  <defs
     id="defs2626">
    <clipPath
       id="clipPath2488">
      <path
         d="M 0,0 L 841.89,0 L 841.89,1190.551 L 0,1190.551 L 0,0 z "
         id="path2490" />
    </clipPath>
  </defs>
  <g
     transform="translate(-53.1495,-50.329625)"
     id="layer1">
    <path
       d="M 18.0625,0 L 18.0625,21.46875 L 23.5,21.46875 L 23.5,13.5 L 25.15625,13.5 L 29.65625,21.46875 L 35.71875,21.46875 L 30.40625,12.40625 C 30.406249,12.40625 34.03125,11.11 34.03125,6.25 C 34.031248,4.3962501 32.24,0 27.0625,0 L 18.0625,0 z M 57.03125,4.03125 C 52.85125,3.9675 48.4375,6.80875 48.4375,12.84375 C 48.437499,18.87875 53.0275,21.8375 57.375,21.84375 C 60.395002,21.8475 62.47,20.8175 63.96875,19.625 L 63.96875,21.46875 L 68.53125,21.46875 L 68.5,15.4375 L 77.3125,24.5 L 82.5,24.5 L 71.40625,12.59375 L 79.625,4.4375 L 74.125,4.4375 L 68.5,10.28125 L 68.5,4.46875 L 63.96875,4.4375 L 63.96875,15 C 62.898752,16.39625 61.08375,18.19125 58,18.25 C 55.741251,18.2925 53.11375,16.96125 53.0625,13.125 C 52.967502,5.9650005 59.435,7.5075 60.625,8.5 L 62.25,5.25 C 62.249998,5.25 60.74625,4.08625 57.03125,4.03125 z M 23.5,4.125 L 26.59375,4.125 C 26.593751,4.1250001 28.62375,4.435 28.59375,7 C 28.5675,9.30125 26.21875,9.5 26.21875,9.5 L 23.5,9.5 L 23.5,4.125 z M 36.6875,4.4375 L 36.6875,21.46875 L 47.84375,21.46875 L 47.84375,17.90625 L 41.03125,17.90625 L 41.03125,14.25 L 46.90625,14.25 L 46.90625,10.84375 L 41,10.84375 L 41,7.8125 L 47.375,7.8125 L 47.375,4.4375 L 36.6875,4.4375 z M 80.9375,4.4375 L 80.9375,21.46875 L 85.46875,21.46875 L 85.46875,4.4375 L 80.9375,4.4375 z M 87.03125,4.4375 L 87.03125,7.8125 L 90.53125,7.8125 L 90.53125,21.5 L 95.0625,21.46875 L 95.0625,7.8125 L 101.90625,7.8125 L 101.90625,21.46875 L 106.40625,21.46875 L 106.40625,7.8125 L 109.875,7.8125 L 109.875,4.4375 L 87.03125,4.4375 z "
       transform="translate(53.1495,50.329625)"
       style="fill:#000000;fill-opacity:1;fill-rule:nonzero;stroke:none"
       id="path2530" />
    <g
       transform="matrix(1.25,0,0,-1.25,71.52075,77.72225)"
       id="g2468">
      <path
         d="M 0,22.9375 L 0,44.40625 L 9.78125,44.40625 C 9.7812503,44.40625 17.1875,44.3875 17.1875,38.4375 C 17.1875,34.231248 13.7725,33.14625 13,32.90625 C 13,32.90625 15.90625,32.26875 15.90625,28.0625 C 15.90625,26.5925 14.46,22.9375 9.28125,22.9375 L 0,22.9375 z M 77.3125,24.5 L 68.53125,33.03125 L 68.53125,27.375 L 63.96875,27.375 L 63.96875,37.9375 C 62.388752,40.000001 60.29375,41.2375 58.09375,41.1875 C 55.834998,41.133748 53.11875,39.92875 53.03125,36.09375 C 52.86875,28.93375 59.61,30.565 60.5625,31.4375 L 62.34375,28.21875 C 62.34375,28.218749 60.85875,26.97 57.125,26.96875 C 52.651251,26.96875 48.53125,29.74625 48.53125,35.78125 C 48.531248,41.815001 53.12125,44.78125 57.46875,44.78125 C 61.815002,44.781251 63.96875,42.4375 63.96875,42.4375 L 63.96875,44.4375 L 68.5625,44.4375 L 68.5625,38.53125 L 74.3125,44.4375 L 79.90625,44.4375 L 71.34375,35.625 L 82.5,24.5 L 77.3125,24.5 z M 5.09375,26.8125 L 8.40625,26.8125 C 8.4062497,26.812499 10.5625,26.97875 10.5625,29.28125 C 10.5625,31.582501 8.03125,31.46875 8.03125,31.46875 L 5.09375,31.46875 L 5.09375,26.8125 z M 93.46875,26.875 C 90.45125,26.82375 87.694998,28.82625 87.53125,32.15625 C 87.37875,35.275 91.056252,36.812499 93,37.375 C 94.94375,37.9375 95.1375,38.569998 95.125,39.625 C 95.11875,40.30125 94.557497,41.555001 92.59375,41.40625 C 90.7225,41.265 88.843754,39.656248 88.84375,39.65625 L 86.96875,42.46875 C 88.75875,44.105 91.111248,44.697498 92.46875,44.71875 C 95.31625,44.76625 99.636247,43.921249 99.6875,39.0625 C 99.7325,34.715 94.630003,33.54 94.375,33.4375 C 91.49,32.28375 91.866251,31.74625 91.96875,31.03125 C 92.04125,30.525 92.846252,29.94875 94.125,30 C 95.7675,30.06625 97.093747,31.03125 97.09375,31.03125 L 98.46875,28.25 C 98.46875,28.25 96.486253,26.925 93.46875,26.875 z M 31.0625,27.375 L 31.0625,44.4375 L 35.4375,44.4375 L 35.4375,34.34375 L 42.6875,44.4375 L 46.9375,44.4375 L 46.9375,27.40625 L 42.625,27.40625 L 42.625,37.15625 L 35.4375,27.40625 L 31.0625,27.375 z M 113.4375,27.375 L 113.4375,44.40625 L 117.78125,44.40625 L 117.78125,38.125 L 118.90625,38.125 L 122.5,44.40625 L 127.5625,44.40625 L 123.3125,37.25 C 123.3125,37.249999 126.21875,36.2325 126.21875,32.34375 C 126.21875,30.861249 124.79875,27.375 120.65625,27.375 L 113.4375,27.375 z M 18.375,27.40625 L 18.375,44.4375 L 29.53125,44.4375 L 29.53125,40.84375 L 22.71875,40.84375 L 22.71875,37.21875 L 28.59375,37.21875 L 28.59375,33.78125 L 22.65625,33.78125 L 22.65625,30.78125 L 29.0625,30.78125 L 29.0625,27.40625 L 18.375,27.40625 z M 80.9375,27.40625 L 80.9375,44.4375 L 85.5,44.4375 L 85.5,27.40625 L 80.9375,27.40625 z M 100.90625,27.40625 L 100.90625,44.4375 L 112.03125,44.4375 L 112.03125,40.84375 L 105.25,40.84375 L 105.25,37.21875 L 111.125,37.21875 L 111.125,33.78125 L 105.1875,33.78125 L 105.1875,30.78125 L 111.59375,30.78125 L 111.59375,27.40625 L 100.90625,27.40625 z M 117.875,30.59375 L 120.53125,30.59375 C 120.53125,30.593749 122,31.065 122,32.90625 C 122,34.747499 120.21875,34.875 120.21875,34.875 L 117.875,34.875 L 117.875,30.59375 z M 5.09375,35.3125 L 8.8125,35.3125 C 8.8124997,35.312502 11.40625,35.66625 11.40625,37.96875 C 11.40625,40.27 8.40625,40.4375 8.40625,40.4375 L 5.09375,40.4375 L 5.09375,35.3125 z "
         transform="matrix(0.8,0,0,-0.8,-14.697,21.9141)"
         style="fill:#00539e;fill-opacity:1;fill-rule:nonzero;stroke:none"
         id="path2470" />
    </g>
    <g
       transform="matrix(1.25,0,0,-1.25,154.04075,77.72225)"
       id="g2472" />
    <g
       transform="matrix(1.25,0,0,-1.25,88.5715,77.72225)"
       id="g2476" />
    <g
       transform="matrix(1.25,0,0,-1.25,134.10112,94.761)"
       id="g2480" />
    <g
       transform="matrix(1.25,0,0,-1.25,0,1488.1875)"
       id="g2484">
      <g
         clip-path="url(#clipPath2488)"
         id="g2486">
        <g
           transform="translate(113.6015,1118.5529)"
           id="g2492" />
        <g
           transform="translate(52.9106,1123.9708)"
           id="g2496" />
        <g
           transform="translate(141.1691,1120.4922)"
           id="g2500" />
        <g
           transform="translate(93.7056,1119.9399)"
           id="g2504" />
      </g>
    </g>
    <g
       transform="matrix(1.25,0,0,-1.25,89.839125,54.774)"
       id="g2508" />
    <g
       transform="matrix(1.25,0,0,-1.25,134.08175,54.774)"
       id="g2512" />
    <g
       transform="matrix(1.25,0,0,-1.25,155.05562,58.149375)"
       id="g2516" />
  </g>
</svg>
